<?xml version="1.0" encoding="UTF-8"?>
<svg xmlns="http://www.w3.org/2000/svg" viewBox="0 0 60 60" width="60px"
     height="60px">
  <g id="surface241607314">
    <path style=" stroke:none;fill-rule:nonzero;fill:rgb(87.843138%,10.196079%,30.980393%);fill-opacity:1;"
          d="M 26 6 C 14.976562 6 6 14.976562 6 26 C 6 37.023438 14.976562 46 26 46 C 30.792969 46 35.195312 44.296875 38.644531 41.472656 L 50.585938 53.414062 C 51.085938 53.9375 51.832031 54.148438 52.535156 53.964844 C 53.234375 53.78125 53.78125 53.234375 53.964844 52.535156 C 54.148438 51.832031 53.9375 51.085938 53.414062 50.585938 L 41.472656 38.644531 C 44.296875 35.195312 46 30.792969 46 26 C 46 14.976562 37.023438 6 26 6 Z M 26 10 C 34.863281 10 42 17.136719 42 26 C 42 34.863281 34.863281 42 26 42 C 17.136719 42 10 34.863281 10 26 C 10 17.136719 17.136719 10 26 10 Z M 26 10 "/>
  </g>
</svg>
